<?xml version="1.0" standalone="no"?>
<!DOCTYPE svg PUBLIC "-//W3C//DTD SVG 20010904//EN"
 "http://www.w3.org/TR/2001/REC-SVG-20010904/DTD/svg10.dtd">
<svg version="1.0" xmlns="http://www.w3.org/2000/svg"
 width="1194.000000pt" height="1280.000000pt" viewBox="0 0 1194.000000 1280.000000"
 preserveAspectRatio="xMidYMid meet">

<g transform="translate(0.000000,1280.000000) scale(0.100000,-0.100000)"
fill="#000000" stroke="none">
<path d="M0 6400 l0 -6400 5970 0 5970 0 0 6400 0 6400 -5970 0 -5970 0 0
-6400z m6200 6035 c319 -30 646 -89 940 -170 123 -34 416 -127 455 -145 11 -5
63 -25 115 -45 336 -129 712 -325 1033 -537 65 -43 122 -78 127 -78 4 0 33 12
64 26 l56 26 69 -22 c65 -20 72 -25 160 -123 51 -56 119 -130 151 -165 33 -35
71 -85 86 -113 15 -27 30 -49 34 -49 4 0 31 -30 61 -67 30 -38 59 -72 66 -78
7 -5 24 -39 38 -74 21 -50 49 -88 129 -175 394 -429 704 -894 1006 -1511 371
-758 585 -1430 674 -2110 168 -1300 -114 -2591 -806 -3683 -122 -193 -317
-462 -416 -575 -16 -17 -64 -72 -107 -122 -43 -49 -145 -157 -226 -239 -106
-105 -149 -155 -149 -171 0 -13 52 -100 117 -197 64 -95 212 -316 329 -490
117 -174 220 -333 228 -353 23 -55 31 -148 14 -166 -8 -8 -29 -34 -47 -59 -28
-40 -157 -178 -355 -381 -36 -36 -81 -74 -101 -83 -34 -16 -111 -33 -184 -41
-62 -7 -65 -3 -684 925 -126 188 -143 210 -169 210 -10 0 -82 -37 -160 -82
-609 -350 -1320 -591 -2018 -683 -418 -55 -904 -62 -1310 -19 -867 91 -1708
391 -2438 870 -79 52 -151 94 -161 94 -23 0 -46 -26 -178 -200 -60 -80 -152
-201 -204 -268 -188 -246 -274 -360 -382 -502 -61 -80 -132 -172 -157 -205
-26 -33 -75 -98 -111 -144 -115 -151 -167 -190 -271 -206 -44 -7 -45 -7 -114
62 -38 37 -100 106 -139 153 -38 46 -102 116 -141 155 -127 126 -174 224 -174
363 l0 56 129 170 c71 94 145 191 164 216 19 25 101 133 183 240 81 107 150
197 153 200 3 3 11 12 16 21 6 9 42 58 82 110 323 422 344 451 337 472 -3 11
-52 70 -107 131 -314 346 -564 699 -820 1158 -91 164 -152 286 -277 558 -421
913 -600 1692 -601 2599 0 365 15 572 67 906 86 559 275 1136 540 1650 182
354 372 647 618 950 139 171 235 276 418 458 378 373 754 652 1252 927 165 91
417 205 646 293 130 49 433 150 485 161 11 3 94 23 185 45 154 38 411 85 595
110 69 9 205 20 425 35 118 8 604 -4 760 -19z"/>
<path d="M5946 11483 c-1 -1 -60 -3 -131 -4 -469 -7 -1058 -116 -1525 -282
-152 -54 -400 -154 -417 -169 -31 -26 -32 -24 296 -508 57 -85 182 -270 276
-410 94 -140 228 -338 297 -440 68 -102 241 -358 383 -570 142 -212 300 -446
350 -520 50 -74 173 -256 273 -405 319 -476 294 -449 353 -373 19 24 39 50 46
58 6 8 78 103 160 210 241 316 532 697 773 1011 52 68 145 192 208 274 131
173 223 295 342 450 46 61 114 149 150 196 36 47 108 142 160 210 396 514 480
629 480 654 0 23 -13 32 -127 88 -583 287 -1212 460 -1863 512 -159 12 -477
25 -484 18z"/>
<path d="M2805 10383 c-361 -280 -717 -647 -987 -1019 -583 -800 -909 -1659
-993 -2616 -20 -233 -20 -680 0 -897 56 -601 191 -1104 409 -1521 222 -426
626 -923 1050 -1293 48 -42 94 -77 100 -77 21 0 43 22 113 115 38 50 91 119
119 155 28 36 122 160 209 275 163 216 343 451 412 540 22 28 97 127 168 220
71 94 158 208 194 255 36 47 108 141 160 210 52 69 118 155 146 191 189 248
555 727 594 778 14 17 34 44 45 60 12 16 64 84 116 152 51 68 117 154 145 190
27 37 115 151 195 255 80 104 152 198 160 210 8 12 49 66 90 119 105 136 119
156 119 187 1 17 -27 69 -82 150 -76 112 -259 384 -765 1138 -102 151 -250
372 -330 490 -232 344 -733 1087 -1027 1525 -92 138 -175 260 -184 272 -28 39
-59 28 -176 -64z"/>
<path d="M9269 10263 c-13 -16 -38 -46 -55 -68 -234 -307 -369 -483 -453 -595
-258 -338 -308 -404 -415 -545 -63 -82 -132 -172 -153 -200 -108 -140 -330
-431 -599 -785 -61 -80 -152 -199 -202 -265 -51 -66 -165 -217 -255 -335 -89
-118 -164 -217 -167 -220 -3 -3 -18 -23 -35 -45 -16 -22 -32 -42 -35 -45 -4
-3 -57 -72 -118 -154 -77 -102 -112 -156 -112 -175 0 -17 54 -107 161 -266 89
-132 284 -421 433 -643 149 -222 276 -411 281 -420 6 -9 12 -19 15 -22 3 -3
75 -108 159 -235 170 -253 476 -708 726 -1080 295 -438 491 -728 593 -881 56
-83 108 -157 116 -164 9 -7 26 -10 38 -6 34 9 292 263 433 426 104 121 149
175 211 255 140 182 308 431 384 570 18 33 36 65 40 70 4 6 43 80 87 165 391
761 581 1590 560 2440 -6 211 -23 451 -41 555 -3 17 -13 75 -22 130 -52 332
-152 692 -263 950 -137 318 -351 654 -632 990 -188 225 -601 622 -650 625 -3
0 -16 -12 -30 -27z"/>
<path d="M5959 5923 c-14 -16 -47 -57 -74 -93 -77 -103 -264 -349 -320 -420
-28 -36 -94 -121 -146 -190 -368 -482 -453 -597 -453 -615 -1 -20 7 -20 574
-25 636 -6 592 -1 682 -72 34 -26 37 -33 40 -91 6 -88 -10 -517 -23 -607 -12
-78 -32 -127 -69 -170 -12 -14 -33 -38 -46 -54 -14 -16 -41 -32 -62 -37 -20
-5 -453 -9 -962 -9 -1002 0 -958 2 -1002 -53 -23 -31 -194 -254 -448 -588
-118 -155 -245 -321 -282 -368 -79 -101 -103 -143 -94 -166 5 -14 152 -90 321
-165 338 -151 754 -279 1130 -349 1135 -211 2315 -42 3342 478 206 104 253
135 253 162 0 20 -124 211 -415 639 -116 170 -375 555 -395 586 -15 22 -214
318 -819 1219 -159 237 -373 555 -476 707 -181 270 -208 308 -224 308 -4 0
-19 -12 -32 -27z"/>
</g>
</svg>
